<svg id="Layer_1" data-name="Layer 1" xmlns="http://www.w3.org/2000/svg" viewBox="0 0 480 148.58"><defs><style>.cls-1{fill:#fff;}</style></defs><title>enter</title><path class="cls-1" d="M111.4,81h-46v44.52h52.66v3.55H61.89V33.46h56.2V37H65.43V77.45h46Z" transform="translate(-15.72 -6.38)"/><path class="cls-1" d="M204.9,129.06h-3.55L140,40l-.39.13v88.91H136V33.46h3.61L201,122.3l.39-.14V33.46h3.55Z" transform="translate(-15.72 -6.38)"/><path class="cls-1" d="M292.75,37H259.26v92.06h-3.54V37H219.87V33.46h72.88Z" transform="translate(-15.72 -6.38)"/><path class="cls-1" d="M359.14,81h-46v44.52h52.66v3.55h-56.2V33.46h56.2V37H313.17V77.45h46Z" transform="translate(-15.72 -6.38)"/><path class="cls-1" d="M387,84.21v44.91h-3.55V33.52h31.12q15.1,0,23.25,6.53t8.14,19.08a23.29,23.29,0,0,1-5.15,14.67,23.71,23.71,0,0,1-14.09,8.57q10.31,1.77,14.77,7.55t4.47,14.78v9a27.43,27.43,0,0,0,1.08,8,12.46,12.46,0,0,0,3.58,5.78v1.64h-3.48a17.4,17.4,0,0,1-3.54-6.66,31.07,31.07,0,0,1-1.19-8.9v-8.73q0-9.72-6.66-15.17t-19-5.45Zm0-3.54H413.9q14.64,0,21.57-6.18a19.74,19.74,0,0,0,6.92-15.36q0-10.71-7-16.38t-20.85-5.68H387Z" transform="translate(-15.72 -6.38)"/><path class="cls-1" d="M495.72,155h-480V6.38h480ZM17.59,153.09H493.85V8.24H17.59Z" transform="translate(-15.72 -6.38)"/></svg>